<svg id="Layer_1" data-name="Layer 1" xmlns="http://www.w3.org/2000/svg" xmlns:xlink="http://www.w3.org/1999/xlink" viewBox="0 0 384.16 86.65"><defs><style>.cls-1{fill:none;}.cls-2{clip-path:url(#clip-path);}.cls-3{fill:#1d1d1b;}</style><clipPath id="clip-path" transform="translate(-191.92 -168.17)"><rect class="cls-1" x="191.92" y="168.17" width="384.16" height="86.65"/></clipPath></defs><title>Logo_VIVA_Liggende_orig</title><g class="cls-2"><path class="cls-3" d="M469.63,237.11h-.24L447.84,175c-1.31-3.71-2.27-6.82-6.46-6.82a4.46,4.46,0,0,0-4.67,4.31,12.13,12.13,0,0,0,.72,4.07l26,72.53c1.2,3.47,2.52,5.74,6.11,5.74s4.9-2.27,6.1-5.74l26-72.53a12.13,12.13,0,0,0,.72-4.07,4.46,4.46,0,0,0-4.67-4.31c-4.19,0-5.14,3.11-6.46,6.82ZM412.81,173.8c0-3.47-2-5.63-5.27-5.63s-5.27,2.16-5.27,5.63v75.4c0,3.47,2,5.62,5.27,5.62s5.27-2.15,5.27-5.62Zm-67.12,63.31h-.24L323.91,175c-1.32-3.71-2.27-6.82-6.46-6.82a4.46,4.46,0,0,0-4.67,4.31,12.13,12.13,0,0,0,.72,4.07l26,72.53c1.2,3.47,2.51,5.74,6.1,5.74s4.91-2.27,6.11-5.74l26-72.53a12.13,12.13,0,0,0,.72-4.07,4.46,4.46,0,0,0-4.67-4.31c-4.19,0-5.15,3.11-6.46,6.82Z" transform="translate(-191.92 -168.17)"/><path class="cls-3" d="M543.4,185.89h-.24L521.62,248c-1.32,3.71-2.27,6.82-6.46,6.82a4.45,4.45,0,0,1-4.67-4.31,12.08,12.08,0,0,1,.72-4.06l26-72.53c1.2-3.47,2.51-5.75,6.1-5.75s4.91,2.28,6.11,5.75l26,72.53a12.08,12.08,0,0,1,.72,4.06,4.46,4.46,0,0,1-4.67,4.31c-4.19,0-5.15-3.11-6.46-6.82Z" transform="translate(-191.92 -168.17)"/><path class="cls-3" d="M263.42,199l-50.19-29a14,14,0,1,0-14,24.33l29.51,17L199,228.6A14.05,14.05,0,0,0,213,252.94l50.19-29a14.59,14.59,0,0,0,.23-24.92" transform="translate(-191.92 -168.17)"/></g></svg>