<?xml version="1.0" encoding="utf-8"?>
<!-- Generator: Adobe Illustrator 24.3.0, SVG Export Plug-In . SVG Version: 6.00 Build 0)  -->
<svg version="1.1" id="Layer_1" xmlns="http://www.w3.org/2000/svg" xmlns:xlink="http://www.w3.org/1999/xlink" x="0px" y="0px"
	 viewBox="0 0 475.1 473.8" style="enable-background:new 0 0 475.1 473.8;" xml:space="preserve">
<style type="text/css">
	.st0{fill:#FF8000;}
	.st1{fill:#FFDD00;}
	.st2{fill:#FFFFFF;}
</style>
<circle class="st0" cx="237.6" cy="237.6" r="237.6"/>
<g>
	<path class="st1" d="M144.6,104.6v104.8c0,51.2,41.5,92.7,92.7,92.7c51.2,0,92.7-41.5,92.7-92.7V104.6H144.6z"/>
</g>
<polygon class="st1" points="300,393.7 174.6,393.7 194.6,344.6 280,344.6 "/>
<rect x="227.2" y="288.4" class="st1" width="20.1" height="74.8"/>
<g>
	<path class="st1" d="M145.2,246.1c-27.6,0-50-24.7-50-55.1s22.4-55.1,50-55.1s50,24.7,50,55.1S172.8,246.1,145.2,246.1z M145.2,153
		c-18.2,0-33,17.1-33,38.1s14.8,38.1,33,38.1s33-17.1,33-38.1S163.4,153,145.2,153z"/>
</g>
<g>
	<path class="st1" d="M330,246.1c-27.6,0-50-24.7-50-55.1s22.4-55.1,50-55.1s50,24.7,50,55.1S357.5,246.1,330,246.1z M330,153
		c-18.2,0-33,17.1-33,38.1s14.8,38.1,33,38.1s33-17.1,33-38.1S348.2,153,330,153z"/>
</g>
<polygon class="st2" points="237.3,150.3 250.4,176.9 279.8,181.2 258.5,201.9 263.5,231.2 237.3,217.4 211,231.2 216,201.9 
	194.7,181.2 224.1,176.9 "/>
</svg>
