<?xml version="1.0" encoding="utf-8"?>
<!-- Generator: Adobe Illustrator 24.3.0, SVG Export Plug-In . SVG Version: 6.00 Build 0)  -->
<svg version="1.1" id="Layer_1" xmlns="http://www.w3.org/2000/svg" xmlns:xlink="http://www.w3.org/1999/xlink" x="0px" y="0px"
	 viewBox="0 0 40.9 44" style="enable-background:new 0 0 40.9 44;" xml:space="preserve">
<style type="text/css">
	.st0{fill-rule:evenodd;clip-rule:evenodd;fill:#FFFFFF;}
</style>
<desc>Created with Sketch.</desc>
<g>
	<path class="st0" d="M22,40H4V4h18c1.1,0,2-0.9,2-2c0-1.1-0.9-2-2-2H2c0,0,0,0,0,0s0,0,0,0C0.9,0,0,0.9,0,2v40c0,1.1,0.9,2,2,2h20
		c1.1,0,2-0.9,2-2C24,40.9,23.1,40,22,40z"/>
	<path class="st0" d="M40.3,20.6l-9.9-9.9c-0.8-0.8-2-0.8-2.8,0c-0.8,0.8-0.8,2,0,2.8l6.5,6.5H11c-1.1,0-2,0.9-2,2c0,1.1,0.9,2,2,2
		h23.1l-6.5,6.5c-0.8,0.8-0.8,2,0,2.8c0.8,0.8,2,0.8,2.8,0l9.9-9.9C41.1,22.6,41.1,21.4,40.3,20.6z"/>
</g>
</svg>
