<svg id="Layer_1" data-name="Layer 1" xmlns="http://www.w3.org/2000/svg" viewBox="0 0 134.46 134.46"><path d="M28.5,57A28.5,28.5,0,1,1,57,28.5,28.53,28.53,0,0,1,28.5,57Zm0-47A18.5,18.5,0,1,0,47,28.5,18.52,18.52,0,0,0,28.5,10Z"/><path d="M106,57a28.5,28.5,0,1,1,28.5-28.5A28.54,28.54,0,0,1,106,57Zm0-47a18.5,18.5,0,1,0,18.5,18.5A18.52,18.52,0,0,0,106,10Z"/><path d="M28.5,134.46A28.5,28.5,0,1,1,57,106,28.53,28.53,0,0,1,28.5,134.46Zm0-47A18.5,18.5,0,1,0,47,106,18.51,18.51,0,0,0,28.5,87.47Z"/><path d="M106,134.46a28.5,28.5,0,1,1,28.5-28.5A28.53,28.53,0,0,1,106,134.46Zm0-47A18.5,18.5,0,1,0,124.46,106,18.51,18.51,0,0,0,106,87.47Z"/></svg>