<?xml version="1.0" encoding="utf-8"?>
<!-- Generator: Adobe Illustrator 24.3.0, SVG Export Plug-In . SVG Version: 6.00 Build 0)  -->
<svg version="1.1" id="Layer_1" xmlns="http://www.w3.org/2000/svg" xmlns:xlink="http://www.w3.org/1999/xlink" x="0px" y="0px"
	 viewBox="0 0 100 99.5" style="enable-background:new 0 0 100 99.5;" xml:space="preserve">
<style type="text/css">
	.st0{fill:#FFFFFF;}
</style>
<path class="st0" d="M7.1,60.5l4.7,2.1c1.9,0.9,2.9,3.1,2.1,5.1l-1.8,4.8c-1.4,3.6-0.9,7.7,1.4,10.8c2.2,3.2,5.8,5.1,9.7,5.1
	c1.4,0,2.9-0.3,4.2-0.8l4.8-1.8c0.5-0.2,0.9-0.3,1.4-0.2c1.6,0,3,0.9,3.7,2.4l2.1,4.7c2.7,5.9,9.7,8.5,15.6,5.9
	c2.6-1.2,4.7-3.3,5.9-5.9L63,88c0.7-1.4,2.1-2.4,3.7-2.4c0.5,0,1,0.1,1.4,0.2l4.8,1.9c1.3,0.5,2.8,0.8,4.2,0.8l0,0
	c3.9-0.1,7.5-2,9.7-5.2c2.2-3.2,2.7-7.2,1.4-10.9l-1.9-4.8c-0.7-2,0.2-4.2,2.1-5.1l4.7-2.1c5.9-2.7,8.5-9.7,5.9-15.6
	c-1.2-2.6-3.3-4.7-5.9-5.9l-4.7-2.1c-1.9-0.9-2.9-3.1-2.1-5.1l1.8-4.8c1.4-3.6,0.9-7.7-1.4-10.8c-2.2-3.2-5.8-5.1-9.7-5.1
	c-1.4,0-2.9,0.3-4.2,0.8l-4.8,1.8c-0.5,0.2-0.9,0.3-1.4,0.2c-1.6,0-3-0.9-3.6-2.3l-2.2-4.7C58.9,2.7,54.7,0,50.1,0
	c-4.7,0-9,2.7-10.9,7L37,11.6c-0.7,1.4-2.1,2.4-3.7,2.4c-0.5,0-0.9-0.1-1.4-0.2l-4.8-1.8c-5.1-1.9-10.8-0.2-13.9,4.3
	c-2.2,3.2-2.7,7.2-1.4,10.8l1.8,4.8c0.7,2-0.2,4.2-2.1,5.1l-4.6,2.1C2.7,41,0,45.1,0,49.8C0,54.4,2.8,58.6,7.1,60.5z M10.3,46.1
	l4.6-2.1c5.6-2.6,8.3-9.1,6.1-14.9l-1.8-4.8c-0.5-1.2-0.3-2.6,0.5-3.7c1-1.6,3-2.2,4.8-1.5l4.8,1.8c1.3,0.5,2.7,0.8,4.1,0.8l0,0
	c4.6,0,8.8-2.7,10.7-7l2.1-4.6c0.7-1.5,2.1-2.4,3.7-2.3c1.6,0,3,0.9,3.7,2.4l2.1,4.6c1.9,4.2,6.1,7,10.7,7c1.4,0,2.8-0.3,4.1-0.8
	l4.8-1.8c1.7-0.6,3.7,0,4.8,1.5c0.8,1.1,0.9,2.5,0.4,3.7l-1.8,4.8C76.7,34.9,79.4,41.4,85,44l4.7,2.1c1.4,0.7,2.4,2.1,2.3,3.7
	c0,1.6-0.9,3-2.4,3.7L85,55.6c-5.6,2.6-8.3,9.1-6.1,14.9l1.8,4.8c0.5,1.2,0.3,2.6-0.4,3.7c-1,1.6-3,2.2-4.8,1.5l-4.8-1.8
	c-1.3-0.5-2.7-0.8-4.1-0.8c-4.6,0-8.8,2.7-10.7,6.9l-2.1,4.7c-0.6,1.4-2.1,2.4-3.6,2.3c-1.6,0-3-0.9-3.7-2.4l-2.2-4.6
	c-1.9-4.2-6.1-6.9-10.7-6.9c-1.4,0-2.8,0.3-4.1,0.8l-4.8,1.8c-1.7,0.6-3.7,0-4.8-1.5c-0.8-1.1-0.9-2.5-0.5-3.7l1.8-4.8
	c2.1-5.8-0.5-12.3-6.1-14.9l-4.6-2.1c-1.5-0.6-2.4-2.1-2.4-3.7C7.9,48.2,8.8,46.7,10.3,46.1z"/>
<path class="st0" d="M49.9,66.6c9.3,0,16.8-7.5,16.8-16.8S59.2,32.9,49.9,33c-9.3,0-16.8,7.5-16.8,16.8C33.1,59,40.6,66.5,49.9,66.6
	z M49.9,40.7c5,0,9,4,9,9s-4,9-9,9s-9-4-9-9C41,44.8,45,40.8,49.9,40.7L49.9,40.7z"/>
</svg>
