<?xml version="1.0" encoding="utf-8"?>
<!-- Generator: Adobe Illustrator 24.3.0, SVG Export Plug-In . SVG Version: 6.00 Build 0)  -->
<svg version="1.1" id="Layer_1" xmlns="http://www.w3.org/2000/svg" xmlns:xlink="http://www.w3.org/1999/xlink" x="0px" y="0px"
	 viewBox="0 0 137.9 141.6" style="enable-background:new 0 0 137.9 141.6;" xml:space="preserve">
<g>
	<path d="M84.4,141.6l-52.5-36.3H0V38.3h31.7L84.4,0V141.6z M8,97.2h26.3l42,29.1V15.7l-42,30.6H8V97.2z"/>
</g>
<g>
	<g>
		<path d="M92.3,95.8c-1,0-2-0.4-2.8-1.2c-1.6-1.6-1.6-4.1,0-5.7L131,47.5c1.6-1.6,4.1-1.6,5.7,0c1.6,1.6,1.6,4.1,0,5.7L95.1,94.7
			C94.4,95.4,93.3,95.8,92.3,95.8z"/>
	</g>
	<g>
		<path d="M133.9,95.8c-1,0-2-0.4-2.8-1.2L89.5,53.1c-1.6-1.6-1.6-4.1,0-5.7c1.6-1.6,4.1-1.6,5.7,0L136.7,89c1.6,1.6,1.6,4.1,0,5.7
			C135.9,95.4,134.9,95.8,133.9,95.8z"/>
	</g>
</g>
</svg>
