<svg xmlns="http://www.w3.org/2000/svg" viewBox="0 0 586.02 95.45"><defs><style>.cls-1{fill:#e1251b;}.cls-2{fill:#2d2a26;}.cls-3{fill:#fff;}</style></defs><title>Asset 1</title><g id="Layer_2" data-name="Layer 2"><g id="Layer_1-2" data-name="Layer 1"><path class="cls-1" d="M220,37.31a6.63,6.63,0,1,1-6.47-5.2A6.67,6.67,0,0,1,220,37.31Z"/><path class="cls-1" d="M220,53.52a6.83,6.83,0,0,1,.15,1.44,6.59,6.59,0,1,1-.15-1.44Z"/><path class="cls-2" d="M240.26,32.33v18c0,4.32,1.6,6.4,5.56,6.4s5.6-2,5.6-6.4v-18h5.92V51c0,7.12-4.12,11-11.48,11S234.3,58.13,234.3,51V32.33Z"/><path class="cls-2" d="M262.32,39.93h5.56v2.52a7.8,7.8,0,0,1,6.44-3.08c4.68,0,7,2.44,7,7.32V61.17h-5.68V48.33c0-2.88-.84-4.24-3.28-4.24A4.11,4.11,0,0,0,268,48.57v12.6h-5.68Z"/><path class="cls-2" d="M285.91,32.41h5.68v5.16h-5.68Zm0,7.52h5.68V61.17h-5.68Z"/><path class="cls-2" d="M294,39.93h6.27l4.36,15.24L309,39.93h6l-7.6,21.24h-5.8Z"/><path class="cls-2" d="M335.37,54.73c-1.16,4.44-4.8,7.16-9.83,7.16-6,0-10-4.32-10-11.48,0-7,3.8-11.24,9.92-11.24,6.47,0,10.19,4.08,10.19,11.4,0,.48,0,1,0,1.48H321.42c.16,3.32,1.64,5,4.4,5a3.77,3.77,0,0,0,3.87-2.36Zm-5.6-6.4c-.08-2.88-1.56-4.4-4.19-4.4-2.44,0-3.92,1.52-4.16,4.4Z"/><path class="cls-2" d="M339.21,39.93h5.28v3.64c1.48-2.92,3.4-4.24,6.12-4.24a5.91,5.91,0,0,1,.84,0v5.76h-1.88c-3.08,0-4.68,1.6-4.68,4.8V61.17h-5.68Z"/><path class="cls-2" d="M358.81,54.25c.08,2.16,1.52,3.2,4.44,3.2,2.28,0,3.48-.8,3.48-2.12,0-1.84-1.84-1.72-5.6-2.68-5-1.28-7.36-2.8-7.36-6.4,0-4.28,3.28-7.08,8.72-7.08,5.72,0,9.07,2.68,9.28,7.24h-5.52c-.08-1.8-1.4-2.84-3.72-2.84-2.16,0-3.2.64-3.2,2,0,1.48,1.76,1.64,5.8,2.6,4.91,1.16,7.31,2.52,7.31,6.36,0,4.8-3.43,7.4-9.95,7.4-5.92,0-9.36-2.84-9.36-7.4v-.24Z"/><path class="cls-2" d="M376,32.41h5.67v5.16H376Zm0,7.52h5.67V61.17H376Z"/><path class="cls-2" d="M392.75,61.45c-4.68,0-5.68-1.6-5.68-6V43.93h-2.79v-4h2.79v-5.8h5.64v5.8H396v4h-3.28V55.69c0,1.12.36,1.36,1.88,1.36H396v4.28C394.43,61.37,393.35,61.45,392.75,61.45Z"/><path class="cls-2" d="M417.45,54.73c-1.16,4.44-4.8,7.16-9.84,7.16-6,0-10-4.32-10-11.48,0-7,3.8-11.24,9.92-11.24,6.48,0,10.2,4.08,10.2,11.4,0,.48,0,1,0,1.48h-14.2c.16,3.32,1.64,5,4.4,5a3.77,3.77,0,0,0,3.88-2.36Zm-5.6-6.4c-.08-2.88-1.56-4.4-4.2-4.4-2.44,0-3.92,1.52-4.16,4.4Z"/><path class="cls-2" d="M427.43,61.45c-4.68,0-5.68-1.6-5.68-6V43.93H419v-4h2.8v-5.8h5.64v5.8h3.28v4h-3.28V55.69c0,1.12.36,1.36,1.88,1.36h1.4v4.28C429.11,61.37,428,61.45,427.43,61.45Z"/><path class="cls-2" d="M452.12,54.73c-1.16,4.44-4.8,7.16-9.84,7.16-6,0-10-4.32-10-11.48,0-7,3.8-11.24,9.91-11.24,6.48,0,10.2,4.08,10.2,11.4,0,.48,0,1,0,1.48h-14.2c.16,3.32,1.65,5,4.4,5a3.77,3.77,0,0,0,3.88-2.36Zm-5.6-6.4c-.08-2.88-1.56-4.4-4.2-4.4-2.44,0-3.92,1.52-4.16,4.4Z"/><path class="cls-2" d="M462.1,61.45c-4.67,0-5.67-1.6-5.67-6V43.93h-2.8v-4h2.8v-5.8h5.63v5.8h3.28v4h-3.28V55.69c0,1.12.36,1.36,1.88,1.36h1.4v4.28C463.78,61.37,462.7,61.45,462.1,61.45Z"/><path class="cls-2" d="M480.1,32.41h5.68v5.16H480.1Zm0,7.52h5.68V61.17H480.1Z"/><path class="cls-2" d="M515.5,31.65c8.6,0,14.08,5.88,14.08,15.16S524.1,62,515.5,62s-14-5.88-14-15.16S506.9,31.65,515.5,31.65Zm0,25.16c5,0,8.08-3.6,8.08-10s-3-10-8.08-10-8,3.6-8,10S510.5,56.81,515.5,56.81Z"/><path class="cls-2" d="M538,54.25c.08,2.16,1.52,3.2,4.44,3.2,2.28,0,3.48-.8,3.48-2.12,0-1.84-1.84-1.72-5.6-2.68-5-1.28-7.36-2.8-7.36-6.4,0-4.28,3.28-7.08,8.72-7.08,5.72,0,9.08,2.68,9.28,7.24h-5.52c-.08-1.8-1.4-2.84-3.72-2.84-2.16,0-3.2.64-3.2,2,0,1.48,1.76,1.64,5.8,2.6,4.92,1.16,7.32,2.52,7.32,6.36,0,4.8-3.44,7.4-10,7.4-5.92,0-9.36-2.84-9.36-7.4v-.24Z"/><path class="cls-2" d="M555.2,32.41h5.68V61.17H555.2Z"/><path class="cls-2" d="M575.26,39.17c6.68,0,10.76,4.28,10.76,11.36s-4.08,11.36-10.76,11.36S564.5,57.61,564.5,50.53,568.58,39.17,575.26,39.17Zm0,18c3.16,0,5-2.36,5-6.6s-1.8-6.56-5-6.56-5,2.32-5,6.56S572.1,57.13,575.26,57.13Z"/><path class="cls-2" d="M147.86,50.87a16,16,0,0,1-.7,5A7.58,7.58,0,0,1,145,59.23a8.56,8.56,0,0,1-3.6,1.85,19.78,19.78,0,0,1-5.12.58,17.72,17.72,0,0,1-4.59-.55,9.12,9.12,0,0,1-3.57-1.8,8.26,8.26,0,0,1-2.3-3.2,12.65,12.65,0,0,1-.83-4.86v-17l-3.29-.62V32.35h10.21v1.23l-3.29.62V52.6A6.93,6.93,0,0,0,130.77,58c1.43,1.3,3.52,2,6.3,2s5-.67,6.32-2,2-3.47,2-6.38V34.2l-3.29-.62V32.35h9.1v1.23l-3.29.62Z"/><path class="cls-2" d="M160.26,43.46V59.31l3.29.62v1.24H153.8V59.93l3.29-.62V43.05l-3.29-1.23v-.7l6.46-1,.17.08Z"/><path class="cls-2" d="M190.87,57.83c-2.39,2.55-5.77,3.83-10.17,3.83q-6.3,0-9.82-3.72T167.36,47a20.53,20.53,0,0,1,1-6.58,13,13,0,0,1,2.74-4.74,11.39,11.39,0,0,1,4.3-2.86,17,17,0,0,1,11.28,0,10.9,10.9,0,0,1,4.22,2.82,12.74,12.74,0,0,1,2.66,4.63,20,20,0,0,1,.92,6.38Q194.45,54,190.87,57.83Zm-3-21a8.26,8.26,0,0,0-7-3.25,8.42,8.42,0,0,0-7,3.15q-2.47,3.15-2.47,9.9t2.43,10.07a8.21,8.21,0,0,0,7,3.23,8.38,8.38,0,0,0,7-3.17q2.47-3.16,2.47-9.88T187.91,36.83Z"/><path class="cls-2" d="M156.66,34a2.07,2.07,0,0,0,.59,1.5,2,2,0,0,0,1.5.6,2.1,2.1,0,0,0,1.53-.6,2,2,0,0,0,.62-1.5,2.07,2.07,0,0,0-.62-1.52,2,2,0,0,0-1.53-.62,2,2,0,0,0-1.5.62A2.13,2.13,0,0,0,156.66,34Z"/><path class="cls-1" d="M47.72,0A47.73,47.73,0,1,0,95.45,47.73,47.73,47.73,0,0,0,47.72,0Z"/><path class="cls-3" d="M1.67,47.73a45.87,45.87,0,0,1,10.51-29.3h0A46,46,0,0,1,47.72,1.67h0A46.06,46.06,0,0,1,93.78,47.73h0A46.06,46.06,0,0,1,47.72,93.79h0a46.06,46.06,0,0,1-46-46.06Zm.68,0A45.22,45.22,0,0,0,15.64,79.81h0A45.22,45.22,0,0,0,47.72,93.1h0A45.25,45.25,0,0,0,79.81,79.81h0A45.22,45.22,0,0,0,93.1,47.73h0A45.27,45.27,0,0,0,79.81,15.64h0A45.25,45.25,0,0,0,47.72,2.35h0a45.29,45.29,0,0,0-35,16.52h0A45.18,45.18,0,0,0,2.35,47.73Z"/><path class="cls-3" d="M11.79,66.41a1.08,1.08,0,0,1,1.1-1.07,1.09,1.09,0,1,1-1.1,1.07Z"/><path class="cls-3" d="M81.11,67.06A1.08,1.08,0,0,1,82.21,66a1.09,1.09,0,1,1-1.1,1.07Z"/><path class="cls-3" d="M79.23,34.49a34.11,34.11,0,0,0-62.84,0,34.09,34.09,0,0,0,7.3,37.38,34.05,34.05,0,0,0,10.84,7.31,35.89,35.89,0,0,0,3.89,1.37h0a17.36,17.36,0,0,0,2,.5,33.92,33.92,0,0,0,7.35.8,35.46,35.46,0,0,0,4.51-.3h0a7.57,7.57,0,0,0,1.88-.31,33.34,33.34,0,0,0,6.87-2.07,34.05,34.05,0,0,0,10.84-7.31l-.24-.24.24.24a34.19,34.19,0,0,0,7.31-37.39ZM26.65,73.63a.31.31,0,0,1-.1-.29l.07-.15a6,6,0,0,1,.59-.83,12.1,12.1,0,0,0,3,3.83A32,32,0,0,1,26.65,73.63Zm-.29-20.22a2.31,2.31,0,0,1,.83,1.68,1.76,1.76,0,0,1,0,.38.92.92,0,0,0,0,.09h0a1.16,1.16,0,0,1-1.08.57,2,2,0,0,1-.41,0c-1.33-.26-2.64-.77-3.72-.91h-.06l2.6-3.57C25.29,52.4,26,53.09,26.36,53.41Zm-5.44-5.94L37.87,30.33,27.71,54.18a3.63,3.63,0,0,0-.87-1.26C25.89,52,22,48.43,20.92,47.47Zm4.56,9.3a2.8,2.8,0,0,0,.55.06,2,2,0,0,0,1.31-.47,1.44,1.44,0,0,0,.39-.49h0v0l0-.05L38.19,31.42a4.14,4.14,0,0,0,.11.63,16.83,16.83,0,0,0,1.45,6.13,12,12,0,0,0,1.08,2c.15.23.28.42.38.55a.83.83,0,0,1,.08.12L38.86,49.2a.35.35,0,0,0,.12.37l.58.46a.19.19,0,0,1,0,.19c0,.13-2.71,10-2.71,10l-8.48,9.74a27.12,27.12,0,0,1-4.9-6c-2.12-3.29-2.75-5.36-2.74-6.55a1.78,1.78,0,0,1,.32-1.16h0l0,0a.84.84,0,0,1,.62-.29h.06C22.76,56,24.09,56.49,25.48,56.77Zm18-35.88a.34.34,0,0,0-.42-.22l.44-.38L45,20.1a.36.36,0,0,0,.3-.39.35.35,0,0,0-.39-.29l-.22,0A10.63,10.63,0,0,1,46,18.8l.64-.25.25-.08a.34.34,0,0,0,.23-.42.35.35,0,0,0-.43-.23,10.9,10.9,0,0,0-1.32.5.33.33,0,0,0-.09-.47.34.34,0,0,0-.47.08L44,19.05l-.21.14-.33.25.08-.16a.34.34,0,0,0-.61-.31l-.86,1.68-.59.55A4.34,4.34,0,0,1,42.74,18a3.9,3.9,0,0,1,2.49-.92,6.65,6.65,0,0,1,1.07.11c.14,0,.67.14,1.13.26l.88.23h.09a1.19,1.19,0,0,1,.89.27.72.72,0,0,1,.18.52,1,1,0,0,1-.15.51.73.73,0,0,1-.09.13l-2.55.28a.33.33,0,0,0-.24.14l-1.61,2.12H44a.82.82,0,0,0-.34.18.87.87,0,0,0-.31.71,1.89,1.89,0,0,0,.46,1.33l.07.08L42.8,25a2,2,0,0,1-.67-.31,1.63,1.63,0,0,1-.71-1.13,5.63,5.63,0,0,1-.07-.82,3,3,0,0,1,0-.52h0l.39-.38,1.45-.5A.33.33,0,0,0,43.46,20.89Zm5.24,2.62a.16.16,0,0,1-.08.15.3.3,0,0,0-.17.25.36.36,0,0,0,.08.28.11.11,0,0,1,0,.11l-.07.12a.36.36,0,0,0,0,.27v0a1.1,1.1,0,0,1,0,.27.41.41,0,0,1-.19.31,1.74,1.74,0,0,1-.63.11l-.72,0a.34.34,0,0,0-.34.29.79.79,0,0,0,0,.24,1.53,1.53,0,0,0,.18.76A1.12,1.12,0,0,0,47,27h0l1.22,1.37-3.16.21L42.9,26.89l.17-.08a.36.36,0,0,0,.19-.31v-1l1.38-1.39a.34.34,0,0,0,.09-.32.36.36,0,0,0-.24-.25h0c-.06,0-.47-.17-.49-1,0-.14,0-.16.07-.19l0,0H45a.34.34,0,0,0,.27-.13s1.44-1.9,1.54-2a.37.37,0,0,1,.25-.14L49,19.81a.11.11,0,0,1,.12.11c0,.18,0,.4.06.64s-.06.14-.1.14l-.78,0a1.38,1.38,0,0,0-.81.32.35.35,0,0,0,0,.51,1.16,1.16,0,0,0,.43.15,1.27,1.27,0,0,0,.63.12.36.36,0,0,0,.24-.36.31.31,0,0,1,.31-.31.14.14,0,0,1,.13.13c0,.34.1.78.12,1s0,.23,0,.33-.1.13-.15.13l-.21,0a.37.37,0,0,0-.24.12.32.32,0,0,0-.08.25Zm-4,5.68a.33.33,0,0,0,.21.07h0L49,29a.35.35,0,0,0,.3-.21.37.37,0,0,0-.07-.36l-.71-.8,1.05.32a2.57,2.57,0,0,1,.94.85,8.3,8.3,0,0,1,.79,1.29c-.14.7-.35,1.4-.56,2.1l-1.77,1.35-3.84-2.6a20.19,20.19,0,0,0-1.95-2.45,2.47,2.47,0,0,0-1.75-.63l-.36,0,.5-.27.71-.37Zm-3.35-.65a1.81,1.81,0,0,1,1.26.42,14.22,14.22,0,0,1,1.29,1.54c.37.5.61.87.61.87a.47.47,0,0,0,.1.1l4.1,2.76a.35.35,0,0,0,.4,0l5.23-4,0,0,.27-.23a3.75,3.75,0,0,1,.46-.35,5.56,5.56,0,0,1,2.15-.89h.19a1.56,1.56,0,0,1,.75.14c.12.09.18.16.19.42v1a.31.31,0,0,0,.29.3c.13,0,.3,0,.3.24a.25.25,0,0,1-.23.27l-.29,0h-.41l-.91.23-.68.15a1.66,1.66,0,0,1-.26.05l-.08,0h0c-.31,0-.77.05-.78.05a.33.33,0,0,0-.24.15s-.58.82-1.31,1.79a28.64,28.64,0,0,1-2.16,2.65c-.58.58-1.07,1-1.41,1.32l-.27.23a.24.24,0,0,1-.23,0c-.5-.21-1.57-.63-2.86-1.18-1.8-.77-4-1.77-5.71-2.67A5.84,5.84,0,0,1,39.72,33l-.15-.18,0,0-.11-.14-.08-.12-.06-.09-.08-.12,0-.05c-.05-.08-.09-.17-.13-.25v0L39,31.78h0a2.29,2.29,0,0,1-.08-.28.5.5,0,0,0,0-.12s0-.07,0-.1a1.94,1.94,0,0,1,0-.24c0-.05,0-.11,0-.16s0-.1,0-.14v0a2.05,2.05,0,0,1,.07-.34h0l.06-.21v0l.08-.2v0l.1-.19,0,0c0-.08.09-.16.14-.24h0A2.47,2.47,0,0,1,41.38,28.54Zm10.73-5.23c0-.15,0-.17.08-.17a1.57,1.57,0,0,1,1,.53,1.37,1.37,0,0,1,.22.37c0,.05,0,.09,0,.12v0h0a.34.34,0,0,0,.34.28h6.68a.34.34,0,0,0,.34-.29.94.94,0,0,1,.28-.45,1.61,1.61,0,0,1,1-.42c.08,0,.09.05.09.12,0,.7,0,2.18,0,4.32A14.65,14.65,0,0,0,63,32.29a14.27,14.27,0,0,1,.85,4.54,6.8,6.8,0,0,1-.53,2.67,3.13,3.13,0,0,0-.7-.32l-.15,0a1.06,1.06,0,0,0-.61.25,1.17,1.17,0,0,0-.4.45.79.79,0,0,0,0,.2,1,1,0,0,0,.12.42l-.24.2A3.43,3.43,0,0,0,61,41a1.09,1.09,0,0,0-.25.39.85.85,0,0,0,0,.32,1.3,1.3,0,0,0,.15.6,7.72,7.72,0,0,1-3.91,1,6.62,6.62,0,0,1-5-1.92,5.89,5.89,0,0,1-1.52-3c.34-.29.93-.81,1.68-1.56l.42-.45a4.22,4.22,0,0,0,1.35,2.11,5.15,5.15,0,0,0,3.22,1.18h.17a4.7,4.7,0,0,0,4.51-4.81,15.19,15.19,0,0,0-.51-3.14,28.32,28.32,0,0,1-.5-5.93.34.34,0,0,0-.34-.34h-6.6a.35.35,0,0,0-.24.1.33.33,0,0,0-.1.24,26,26,0,0,1-.32,4.55l-1.55,1.18c.12-.44.23-.9.32-1.36a.13.13,0,0,0,0-.06,10.92,10.92,0,0,0,.19-1.84C52.13,26,52.12,24.17,52.11,23.31Zm9.51,19a1.06,1.06,0,0,1-.24-.55.5.5,0,0,1,0-.12h0a2.77,2.77,0,0,1,.41-.44c.19-.16.36-.28.36-.29a.4.4,0,0,0,.15-.3.57.57,0,0,0-.07-.24l-.06-.13a.24.24,0,0,1,.06-.27.33.33,0,0,1,.32,0,4.45,4.45,0,0,1,.53.27,2,2,0,0,1,.71.62,1.22,1.22,0,0,1,.2.62.36.36,0,0,1-.1.26c-.11.13-1.12,1-1.22,1a6.68,6.68,0,0,1-.9.4l-.31.11c-.12.05-.14,0-.14,0s0-.08,0-.12a1.29,1.29,0,0,0,.17-.16.56.56,0,0,0,.17-.37A.4.4,0,0,0,61.62,42.27Zm1,23.78a.17.17,0,0,1-.07.15l-2.49,1.39-.28-24.06a6.18,6.18,0,0,0,.79-.31Zm-11,11.13s.89,1.15.92,1.2a.1.1,0,0,1,0,.13,11.81,11.81,0,0,1-6,2.14c.39-1.81,1.91-8.94,3-16.2,1.15-7.48,1.67-14.59,1.77-16.07l1.05-.07c.16,0,.18.07.18.17s-1,28.48-1,28.48A.36.36,0,0,0,51.6,77.18Zm-12-28.25,2.26-7.8a.19.19,0,0,1,.14-.13s1.63-.46,1.89-.55a3.87,3.87,0,0,1,.68-.11L50.23,40a6.49,6.49,0,0,0,1.21,1.82,6.33,6.33,0,0,0,1.62,1.24s0,4.26,0,4.34,0,.17-.22.18l-7,.5a2.93,2.93,0,0,0-.64.1l-5,1.36a.34.34,0,0,1-.24,0l-.27-.21A.4.4,0,0,1,39.65,48.93Zm2.11-8.65a14.6,14.6,0,0,1-2.65-7l.12.12a6.12,6.12,0,0,0,1.6,1.19c3.43,1.84,8.94,4,8.94,4h0a6.24,6.24,0,0,0,.18.68l-5.17.31a5.79,5.79,0,0,0-1,.15l-1.82.52A.14.14,0,0,1,41.76,40.28Zm11.45,7.93.25-.05a.35.35,0,0,0,.27-.34l0-4.44a8.39,8.39,0,0,0,3.18.58h0a9.88,9.88,0,0,0,2.17-.24l.32,27.52v.09a2.29,2.29,0,0,1-.88,1.85,11.58,11.58,0,0,1-6.27,2Zm-.13-12.54c.8-1,1.68-2.19,2.17-2.87v5.71a3.82,3.82,0,0,1-.94-.59A3.59,3.59,0,0,1,53.08,35.67Zm2.86,3.09V32.35h.17a2.94,2.94,0,0,0,.5-.07l.2-.05v6.7A4.18,4.18,0,0,1,55.94,38.76Zm1.56.18V32.06l.69-.17h.13v6.9A3.82,3.82,0,0,1,57.5,38.94Zm2.12-8.44a.53.53,0,0,0-.35-.38l-.19-.05v-.75a1.5,1.5,0,0,0-.08-.47V26.1h1.07a28,28,0,0,0,.52,5.71,14.39,14.39,0,0,1,.49,3A4.32,4.32,0,0,1,60,37.71a4.06,4.06,0,0,1-1,.78V31.83h.19a.37.37,0,0,0,.26-.11.79.79,0,0,0,.18-.39,1.84,1.84,0,0,0,0-.41A1.37,1.37,0,0,0,59.62,30.5Zm-1.3-4.4v2.1a2.71,2.71,0,0,0-.82-.13v-2Zm-1.51,0v2a4.94,4.94,0,0,0-.87.29V26.1Zm-1.56,0v2.67l-.5.3a6,6,0,0,0-.8.64h0a28.84,28.84,0,0,0,.22-3.61ZM28.14,71.29l9.32-10.7a.33.33,0,0,0,.07-.13l2.75-10.15a.14.14,0,0,1,.09-.09l5-1.38a3.92,3.92,0,0,1,.46-.08l2.68-.19c0,.32-.08.82-.17,1.47-.46,3.41-1.85,10.76-5.26,14.76a19.4,19.4,0,0,1-14.72,6.61h-.17C28.12,71.41,28.06,71.39,28.14,71.29Zm-.16.8h.41a20.08,20.08,0,0,0,15.24-6.84c4.35-5.16,5.44-15,5.61-16.72l1.36-.1c-.05.7-.17,2.37-.38,4.63-.29,3-.73,7.1-1.38,11.29s-1.43,8.34-2,11.44c-.46,2.29-.83,4-1,4.75a.26.26,0,0,1-.26.19c-.37,0-.75,0-1.14,0a19.83,19.83,0,0,1-3.81-.37c-.67-.14-1.33-.31-2-.5a20,20,0,0,1-9-5.29A11,11,0,0,1,28,72.46l-.13-.25C27.86,72.13,27.91,72.08,28,72.09Zm19.68,9.09a12.06,12.06,0,0,0,5-1.89l1.08.31h.12l1.08-.06c.29,0,.42.15.42.21a1.09,1.09,0,0,0,0,.13.43.43,0,0,1-.11.3,7.58,7.58,0,0,1-1.16.41,34.09,34.09,0,0,1-6.24.58ZM78.6,60.77A33.65,33.65,0,0,1,60.81,78.56,33,33,0,0,1,56,80.17l0-.67c0-.4-.45-.6-.7-.6l-1.44,0-.49-.12a.06.06,0,0,1,0-.09.34.34,0,0,0,0-.42l-1.1-1.43,0-1A12.19,12.19,0,0,0,59,73.73a3,3,0,0,0,1.16-2.4v-.11l0-2.85h0l3.06-1.72a.33.33,0,0,0,.17-.33L61.34,44l.69-.25a6.09,6.09,0,0,0,1-.47,15.56,15.56,0,0,0,1.36-1.16,1,1,0,0,0,.27-.7,2,2,0,0,0-.29-1,2.33,2.33,0,0,0-.49-.55,7.41,7.41,0,0,0,.64-3.05,15.22,15.22,0,0,0-.88-4.74,13.83,13.83,0,0,1-.85-4.34c0-3,0-4.8,0-4.8a.33.33,0,0,0-.1-.25.31.31,0,0,0-.24-.1,2.6,2.6,0,0,0-2,.7,1.69,1.69,0,0,0-.32.49H54a2.06,2.06,0,0,0-.32-.56,2.41,2.41,0,0,0-2-.8.33.33,0,0,0-.24.1.35.35,0,0,0-.1.24s0,2.27,0,5.45c0,.25,0,.5,0,.74-.13-.2-.26-.4-.41-.59a2.89,2.89,0,0,0-1.28-1.08l-1.89-.58a.74.74,0,0,1-.48-.37.8.8,0,0,1-.09-.26h.4a2.34,2.34,0,0,0,.88-.16.86.86,0,0,0,.55-.55,1.16,1.16,0,0,0,.06-.39,2.51,2.51,0,0,0,0-.34l.16-.29a.35.35,0,0,0,0-.3.37.37,0,0,0,.11-.27l0-.35h0a1.35,1.35,0,0,0,.33-.09.51.51,0,0,0,.18-.13.44.44,0,0,0,.13-.3c0-.1,0-.32,0-.66-.07-.84-.21-2.27-.25-2.72a1.89,1.89,0,0,0,.39-1.07,1.39,1.39,0,0,0-.39-1A1.81,1.81,0,0,0,48.44,17c-.27-.07-1.65-.44-2-.5a8,8,0,0,0-1.16-.11,4.58,4.58,0,0,0-2.91,1.06c-1.42,1.12-1.53,3.12-1.54,4a3.78,3.78,0,0,0,0,.38,2.84,2.84,0,0,0-.12.91,5.82,5.82,0,0,0,.08.93,2.36,2.36,0,0,0,1.17,1.7,3.24,3.24,0,0,0,.65.28v.65a25.31,25.31,0,0,0-3.62,2,2.29,2.29,0,0,0-.3.25h0L20.18,47.24a.33.33,0,0,0-.1.25.32.32,0,0,0,.11.24s1.27,1.16,2.68,2.45l1.06,1-3.38,4.64a2.51,2.51,0,0,0-.47,1.59c0,1.42.71,3.57,2.86,6.92a27.22,27.22,0,0,0,5,6.15l-.89,1a7,7,0,0,0-.61.73,5,5,0,0,0-.44.66.89.89,0,0,0-.08.17q-.92-.8-1.77-1.65A33.36,33.36,0,0,1,17,60.77a33.47,33.47,0,0,1,0-26,33.42,33.42,0,0,1,61.58,26Z"/><path class="cls-3" d="M8.74,50.63a3.06,3.06,0,0,1,1,0,1.57,1.57,0,0,1,.72.35,1.78,1.78,0,0,1,.46.68,4,4,0,0,1,.25,1,3.82,3.82,0,0,1,0,.95,2.06,2.06,0,0,1-.26.77,1.62,1.62,0,0,1-.58.55,3.67,3.67,0,0,1-.83.27l-.21,0-3,.4a.14.14,0,0,0-.11.12l0,.44a.15.15,0,0,1-.11.12l-.14,0a.12.12,0,0,1-.11-.09l-.27-2a.09.09,0,0,1,.09-.11l.13,0a.13.13,0,0,1,.14.08l.14.42a.13.13,0,0,0,.13.08l3.39-.44a1.3,1.3,0,0,0,.93-.5,1.54,1.54,0,0,0,.21-1.15,1.46,1.46,0,0,0-.51-1,2.77,2.77,0,0,0-1.12-.19l-.21,0-3.07.4c-.06,0-.1.06-.11.11l0,.45a.14.14,0,0,1-.11.12H5.42a.1.1,0,0,1-.12-.09l-.24-1.82a.1.1,0,0,1,.09-.12h.13a.13.13,0,0,1,.14.08l.14.42a.13.13,0,0,0,.13.09Z"/><path class="cls-3" d="M5.1,45.9a.2.2,0,0,1,.09-.16L9.46,43.2l-3.57-.27a.13.13,0,0,0-.13.1l-.12.42a.12.12,0,0,1-.13.09H5.38a.1.1,0,0,1-.1-.11l.14-1.75a.1.1,0,0,1,.11-.1h.13a.13.13,0,0,1,.12.11l0,.44a.13.13,0,0,0,.11.12l5.06.38a.1.1,0,0,1,.1.11l0,.5a.25.25,0,0,1-.1.16L6,46.29l4.15.31a.13.13,0,0,0,.14-.09l.11-.42a.11.11,0,0,1,.13-.09h.13a.1.1,0,0,1,.1.11l-.13,1.75a.12.12,0,0,1-.11.1h-.14c-.05,0-.11-.06-.11-.11l-.05-.45a.15.15,0,0,0-.12-.11L5.59,47a.13.13,0,0,0-.14.09l-.11.43a.13.13,0,0,1-.13.09H5.07A.1.1,0,0,1,5,47.44Z"/><path class="cls-3" d="M6.85,36.42a.14.14,0,0,1,.09.13l0,.44a.13.13,0,0,0,.09.13l4.43,1.1a.12.12,0,0,0,.14-.06l.19-.4a.12.12,0,0,1,.14-.07l.13,0a.11.11,0,0,1,.08.13l-.5,2a.09.09,0,0,1-.12.07l-.14,0a.13.13,0,0,1-.09-.13l0-.44a.12.12,0,0,0-.09-.12L6.77,38.08a.13.13,0,0,0-.14.07l-.19.4a.13.13,0,0,1-.14.07l-.13,0a.1.1,0,0,1-.08-.12l.5-2a.11.11,0,0,1,.13-.08Z"/><path class="cls-3" d="M13.78,33.07a.16.16,0,0,1,0,.16l-.24.57a.19.19,0,0,1-.15.09l-5.37-.37a.19.19,0,0,0-.16.08l-.2.27a.13.13,0,0,1-.16,0l-.12,0a.1.1,0,0,1-.06-.13L8.1,32a.11.11,0,0,1,.14,0l.12,0a.14.14,0,0,1,.08.14l-.07.35a.09.09,0,0,0,.09.11l4.31.33-3.17-3a.08.08,0,0,0-.13,0l-.24.35a.14.14,0,0,1-.15,0L9,30.25a.1.1,0,0,1-.06-.14l.66-1.56a.11.11,0,0,1,.14-.05l.12.05a.13.13,0,0,1,.08.14l-.09.41a.22.22,0,0,0,.06.17Z"/><path class="cls-3" d="M24.57,18.33a2.66,2.66,0,0,0,.41-.16,2.06,2.06,0,0,0,.34-.19,1.5,1.5,0,0,0,.58-.74.83.83,0,0,0-.17-.76.86.86,0,0,0-.38-.31,1.13,1.13,0,0,0-.45-.09,2.89,2.89,0,0,0-.5,0,4.54,4.54,0,0,1-.51.09l-.7.09a2.27,2.27,0,0,1-.58,0,1.24,1.24,0,0,1-.47-.15,1.43,1.43,0,0,1-.42-.4,1.26,1.26,0,0,1-.26-.61,1.3,1.3,0,0,1,.07-.64,1.89,1.89,0,0,1,.37-.63,3.38,3.38,0,0,1,.64-.6l.33-.21.37-.2.37-.17.24-.08s.11,0,.12,0a.38.38,0,0,1,.08.11l.43.76a.11.11,0,0,1,0,.15l-.28.21a.17.17,0,0,1-.17,0l-.53-.45a1,1,0,0,0-.33.08,2,2,0,0,0-.41.24,1.19,1.19,0,0,0-.49.65.76.76,0,0,0,.14.69,1,1,0,0,0,.34.29,1,1,0,0,0,.38.08,2,2,0,0,0,.42-.05l.45-.08.67-.11a3.18,3.18,0,0,1,.68,0,1.6,1.6,0,0,1,.62.13,1.08,1.08,0,0,1,.5.43,1.63,1.63,0,0,1,.3.76,1.37,1.37,0,0,1-.09.7,2.25,2.25,0,0,1-.43.64,5.9,5.9,0,0,1-.69.59,3.75,3.75,0,0,1-.74.45c-.25.13-.59.27-.59.27a.15.15,0,0,1-.11,0A.38.38,0,0,1,24,19l-.44-.76a.11.11,0,0,1,0-.15l.28-.21a.15.15,0,0,1,.16,0Z"/><path class="cls-3" d="M28.66,9.92a.12.12,0,0,1,0,.15l-.34.28a.14.14,0,0,0,0,.16l2.16,4a.12.12,0,0,0,.15.06l.41-.13a.14.14,0,0,1,.15.06l.07.12a.11.11,0,0,1-.05.14l-1.8,1a.1.1,0,0,1-.14,0l-.07-.12a.12.12,0,0,1,0-.15l.34-.28a.12.12,0,0,0,0-.16l-2.16-4a.12.12,0,0,0-.14-.06l-.42.13a.14.14,0,0,1-.15-.06l-.06-.12a.1.1,0,0,1,0-.14l1.81-1a.11.11,0,0,1,.14.05Z"/><path class="cls-3" d="M30.91,8.6A.2.2,0,0,1,31,8.51L35.25,7a.23.23,0,0,1,.14,0s.07,0,.09.11l.37.9a.1.1,0,0,1-.06.13l-.34.13a.14.14,0,0,1-.16-.06L35,7.74a.13.13,0,0,0-.15-.06l-.44.13-.2.06L33.77,8l1.59,4.36a.13.13,0,0,0,.13.08l.44-.07a.13.13,0,0,1,.13.08l0,.13a.1.1,0,0,1-.06.13l-1.93.7a.1.1,0,0,1-.13-.06l-.05-.13a.11.11,0,0,1,.05-.14l.38-.23a.13.13,0,0,0,.05-.15L32.84,8.37l-.43.16a1.07,1.07,0,0,0-.19.07l-.43.19a.13.13,0,0,0-.08.14l.05.53a.14.14,0,0,1-.08.14l-.34.12a.1.1,0,0,1-.13-.06l-.29-.9A.3.3,0,0,1,30.91,8.6Z"/><path class="cls-3" d="M41.24,9.2l-1.88.35-.29,1.73a.09.09,0,0,0,.08.11h.39a.15.15,0,0,1,.13.11l0,.13a.1.1,0,0,1-.08.12L38,12.06a.1.1,0,0,1-.12-.08l0-.13a.13.13,0,0,1,.08-.14l.34-.15a.2.2,0,0,0,.11-.14l1-5.42a.16.16,0,0,1,.12-.12l.73-.14a.16.16,0,0,1,.15.07l2.68,4.72a.2.2,0,0,0,.16.09h.36a.14.14,0,0,1,.12.11l0,.13a.1.1,0,0,1-.08.12l-1.89.36a.11.11,0,0,1-.12-.09l0-.13a.13.13,0,0,1,.07-.14l.34-.15a.1.1,0,0,0,0-.13ZM39.87,6.72l-.43,2.4L41,8.82Z"/><path class="cls-3" d="M46.46,10.36a2.58,2.58,0,0,0,.42.12,2,2,0,0,0,.39,0,1.5,1.5,0,0,0,.9-.25.85.85,0,0,0,.32-.72.89.89,0,0,0-.12-.47,1.29,1.29,0,0,0-.32-.34,3.35,3.35,0,0,0-.42-.26l-.47-.23-.62-.34a2.44,2.44,0,0,1-.47-.33,1.33,1.33,0,0,1-.29-.41,1.51,1.51,0,0,1-.11-.56A1.25,1.25,0,0,1,45.83,6a1.31,1.31,0,0,1,.43-.48,2.42,2.42,0,0,1,.67-.29,4,4,0,0,1,.88-.1l.38,0,.42.06c.14,0,.27,0,.4.09l.24.07a.24.24,0,0,1,.11.06v.14l-.11.87a.11.11,0,0,1-.11.1h-.35a.13.13,0,0,1-.13-.1l-.17-.67a.9.9,0,0,0-.31-.13,1.61,1.61,0,0,0-.47,0,1.28,1.28,0,0,0-.79.23.79.79,0,0,0-.29.64.88.88,0,0,0,.1.43,1,1,0,0,0,.26.29,1.72,1.72,0,0,0,.37.22l.42.2.6.31a2.76,2.76,0,0,1,.57.36,1.73,1.73,0,0,1,.42.48,1.09,1.09,0,0,1,.15.64,1.67,1.67,0,0,1-.2.79,1.47,1.47,0,0,1-.49.5,2,2,0,0,1-.73.27,5.06,5.06,0,0,1-.9.07,4.11,4.11,0,0,1-.86-.07c-.29-.05-.64-.14-.64-.14s-.1,0-.1-.06a.85.85,0,0,1,0-.13l.09-.87a.12.12,0,0,1,.12-.1h.35a.13.13,0,0,1,.13.1Z"/><path class="cls-3" d="M61.2,12.67a2.76,2.76,0,0,1-2.2.09,3.35,3.35,0,0,1-1-.54,2.11,2.11,0,0,1-.64-.79,2.39,2.39,0,0,1-.23-1,4.25,4.25,0,0,1,.21-1.25A4,4,0,0,1,57.9,8a2.49,2.49,0,0,1,.82-.71,2.14,2.14,0,0,1,1-.27,3.18,3.18,0,0,1,1.15.17,3.33,3.33,0,0,1,1,.53,2.28,2.28,0,0,1,.65.8,2.45,2.45,0,0,1,.23,1,3.68,3.68,0,0,1-.21,1.25A3.08,3.08,0,0,1,61.2,12.67Zm.51-4.1a1.41,1.41,0,0,0-1-1,1.44,1.44,0,0,0-1.37.18,3.12,3.12,0,0,0-1,1.63,3.28,3.28,0,0,0-.18,1.94,1.41,1.41,0,0,0,1,1,1.47,1.47,0,0,0,1.37-.17,3.2,3.2,0,0,0,1-1.64A3.26,3.26,0,0,0,61.71,8.57Z"/><path class="cls-3" d="M64.54,14.34a3,3,0,0,0,.31.3,2.22,2.22,0,0,0,.32.23,1.52,1.52,0,0,0,.92.21,1,1,0,0,0,.74-.94,1.35,1.35,0,0,0-.11-.45,2.67,2.67,0,0,0-.25-.43l-.3-.43-.38-.6a2.39,2.39,0,0,1-.25-.51,1.12,1.12,0,0,1-.06-.51A1.36,1.36,0,0,1,66.71,10a2.08,2.08,0,0,1,.73.07,3.06,3.06,0,0,1,.82.33,2.36,2.36,0,0,1,.32.2l.34.25.31.27.18.18s.07.09.06.11a.31.31,0,0,1-.07.12l-.5.71a.12.12,0,0,1-.15,0l-.31-.17a.16.16,0,0,1-.07-.15l.18-.67a.83.83,0,0,0-.21-.27,1.64,1.64,0,0,0-.39-.27,1.22,1.22,0,0,0-.8-.17.75.75,0,0,0-.56.42.8.8,0,0,0-.12.43.88.88,0,0,0,.09.38,1.74,1.74,0,0,0,.22.36l.26.37c.12.19.25.37.38.57a2.67,2.67,0,0,1,.33.59,1.74,1.74,0,0,1,.14.62,1.15,1.15,0,0,1-.17.63,1.66,1.66,0,0,1-.57.6,1.59,1.59,0,0,1-.67.21,2.11,2.11,0,0,1-.76-.12,4.61,4.61,0,0,1-.83-.37,4.51,4.51,0,0,1-.72-.48c-.23-.18-.49-.42-.49-.42s-.07-.09-.06-.1a.57.57,0,0,1,.07-.12l.5-.72a.12.12,0,0,1,.15,0l.31.17a.15.15,0,0,1,.07.15Z"/><path class="cls-3" d="M70.47,18.08a.1.1,0,0,0,0,.15l.7.55.17.12.37.25a.14.14,0,0,0,.16,0l.46-.37a.12.12,0,0,1,.16,0l.29.22a.11.11,0,0,1,0,.15l-.6.72L72.1,20S72,20,72,20l-3-2.38a.11.11,0,0,1,0-.15l.08-.1a.14.14,0,0,1,.16,0l.39.2a.14.14,0,0,0,.16,0l2.81-3.59a.13.13,0,0,0,0-.16l-.29-.33a.14.14,0,0,1,0-.16l.09-.11a.11.11,0,0,1,.14,0l1.61,1.27a.1.1,0,0,1,0,.14L74,14.6a.14.14,0,0,1-.16,0l-.39-.2a.14.14,0,0,0-.16,0Z"/><path class="cls-3" d="M77.21,24.47a2.72,2.72,0,0,1-1.94-1,3.28,3.28,0,0,1-.62-1,2.18,2.18,0,0,1-.15-1,2.41,2.41,0,0,1,.33-1,3.78,3.78,0,0,1,.82-1,4,4,0,0,1,1.1-.71,2.44,2.44,0,0,1,1.07-.2,2.32,2.32,0,0,1,1,.28,3.22,3.22,0,0,1,.9.74,3.12,3.12,0,0,1,.61,1,2.09,2.09,0,0,1,.16,1,2.45,2.45,0,0,1-.33,1,4,4,0,0,1-.82,1A3.07,3.07,0,0,1,77.21,24.47Zm2.52-3.27a1.4,1.4,0,0,0-.36-1.33,1.43,1.43,0,0,0-1.27-.54,3.12,3.12,0,0,0-1.69.9,3.38,3.38,0,0,0-1.14,1.58,1.43,1.43,0,0,0,.37,1.33,1.46,1.46,0,0,0,1.27.55,3.22,3.22,0,0,0,1.69-.9A3.3,3.3,0,0,0,79.73,21.2Z"/><path class="cls-3" d="M82.06,28.05a.12.12,0,0,0,0-.16l-.62-1.05-2,1.23.66,1.12.12.17.25.37a.16.16,0,0,0,.16.06l.55-.19a.14.14,0,0,1,.15.06l.19.32a.1.1,0,0,1,0,.14l-.82.45-.14.07s-.07,0-.1-.07L78.29,27a.1.1,0,0,1,0-.14l.12-.07a.14.14,0,0,1,.16,0l.29.33a.14.14,0,0,0,.16,0L83,24.81a.13.13,0,0,0,0-.15l-.15-.42a.13.13,0,0,1,.06-.15L83,24a.1.1,0,0,1,.14,0l2,3.43a.34.34,0,0,1,0,.14.29.29,0,0,1-.09.11l-.82.53a.1.1,0,0,1-.14,0L84,27.92a.12.12,0,0,1,0-.15l.45-.42a.17.17,0,0,0,0-.17l-.22-.41a1.62,1.62,0,0,0-.1-.18l-.59-1-1.8,1.07.62,1.05a.14.14,0,0,0,.15.05l.41-.16a.13.13,0,0,1,.15.06l.15.26a.11.11,0,0,1,0,.14l-1.33.79a.1.1,0,0,1-.14,0l-.16-.26a.14.14,0,0,1,0-.16Z"/><path class="cls-3" d="M14.86,25.62a.14.14,0,0,0-.15,0l-.67,1L16,28l.71-1.09.11-.17.22-.4a.14.14,0,0,0,0-.16l-.41-.42a.14.14,0,0,1,0-.16l.21-.31a.11.11,0,0,1,.14,0l.77.55.12.09s0,.07,0,.12l-2.29,3.5a.1.1,0,0,1-.14,0l-.11-.07a.13.13,0,0,1-.05-.15l.17-.41a.13.13,0,0,0,0-.15l-3.82-2.49a.14.14,0,0,0-.16,0l-.31.31a.14.14,0,0,1-.16,0l-.11-.07a.11.11,0,0,1,0-.15L13,23a.33.33,0,0,1,.11-.1.2.2,0,0,1,.14,0l.83.5a.1.1,0,0,1,0,.14l-.19.31a.14.14,0,0,1-.16.05l-.57-.21a.14.14,0,0,0-.16,0l-.27.37-.12.17-.65,1,1.76,1.14.66-1a.12.12,0,0,0,0-.16L14,25a.13.13,0,0,1,0-.16l.16-.25a.11.11,0,0,1,.15,0l1.29.84a.1.1,0,0,1,0,.14l-.17.26a.11.11,0,0,1-.15,0Z"/><path class="cls-3" d="M87.53,32.53a.19.19,0,0,1,0,.18l-2.91,4L88,35.56a.13.13,0,0,0,.08-.13L88,35a.12.12,0,0,1,.08-.13l.13,0a.1.1,0,0,1,.13.07l.58,1.66a.1.1,0,0,1-.07.13l-.12,0a.12.12,0,0,1-.15-.05l-.22-.39a.13.13,0,0,0-.15-.05l-4.8,1.65a.1.1,0,0,1-.13-.06l-.16-.47a.22.22,0,0,1,0-.18l3.38-4.62L82.58,33.9a.13.13,0,0,0-.08.14l.06.43a.13.13,0,0,1-.08.14l-.13,0a.1.1,0,0,1-.13-.06l-.58-1.66a.11.11,0,0,1,.07-.14l.12,0a.13.13,0,0,1,.15.06l.23.38a.12.12,0,0,0,.15.06l4.31-1.49a.13.13,0,0,0,.08-.14l-.07-.44a.12.12,0,0,1,.09-.13l.12-.05a.09.09,0,0,1,.13.07Z"/><path class="cls-3" d="M84.54,41.25a2.62,2.62,0,0,0-.06.43,2.4,2.4,0,0,0,0,.39,1.46,1.46,0,0,0,.38.86.85.85,0,0,0,.75.22.92.92,0,0,0,.45-.19,1.28,1.28,0,0,0,.29-.36,2.77,2.77,0,0,0,.2-.46c0-.16.11-.33.17-.49s.17-.46.25-.66a2,2,0,0,1,.26-.51,1.24,1.24,0,0,1,.37-.35,1.32,1.32,0,0,1,.54-.18,1.44,1.44,0,0,1,.66.06,1.47,1.47,0,0,1,.53.36,2.16,2.16,0,0,1,.38.63,3.12,3.12,0,0,1,.22.85c0,.12,0,.25,0,.39s0,.28,0,.42,0,.27,0,.41l0,.25s0,.11,0,.11l-.13,0-.88,0a.13.13,0,0,1-.12-.1l0-.35a.13.13,0,0,1,.08-.14l.65-.26a.88.88,0,0,0,.08-.33,1.51,1.51,0,0,0,0-.47,1.25,1.25,0,0,0-.34-.75.81.81,0,0,0-.68-.2.83.83,0,0,0-.66.46,1.68,1.68,0,0,0-.16.39l-.14.44c-.08.21-.15.42-.23.64a2.5,2.5,0,0,1-.28.62,1.74,1.74,0,0,1-.41.48,1,1,0,0,1-.61.24,1.64,1.64,0,0,1-.82-.1,1.43,1.43,0,0,1-.56-.41,1.77,1.77,0,0,1-.36-.68,5.29,5.29,0,0,1-.21-.89,5,5,0,0,1,0-.86c0-.29,0-.64,0-.64a.15.15,0,0,1,0-.12h.13l.88,0a.11.11,0,0,1,.12.09l0,.35a.16.16,0,0,1-.08.15Z"/><path class="cls-3" d="M90,48.94a.14.14,0,0,1-.12-.11l-.09-.43a.13.13,0,0,0-.12-.1l-4.56,0a.13.13,0,0,0-.12.1l-.08.44a.14.14,0,0,1-.13.1h-.13a.1.1,0,0,1-.1-.11V46.8a.1.1,0,0,1,.1-.1h.13a.13.13,0,0,1,.13.1l.08.43a.13.13,0,0,0,.13.1l4.56,0a.14.14,0,0,0,.12-.1l.08-.43a.14.14,0,0,1,.12-.11h.14a.1.1,0,0,1,.1.11v2a.09.09,0,0,1-.1.1Z"/><path class="cls-3" d="M84.79,52.41a3.66,3.66,0,0,0-.18.39,2.4,2.4,0,0,0-.1.38,1.45,1.45,0,0,0,.11.93.82.82,0,0,0,.65.43.84.84,0,0,0,.48,0,1.36,1.36,0,0,0,.39-.25,2.47,2.47,0,0,0,.32-.39l.31-.42.43-.56a2.16,2.16,0,0,1,.4-.4,1.2,1.2,0,0,1,.45-.23,1.4,1.4,0,0,1,.58,0,1.24,1.24,0,0,1,.61.25,1.31,1.31,0,0,1,.4.5,2,2,0,0,1,.18.71,3.32,3.32,0,0,1,0,.88,1.84,1.84,0,0,1-.08.38l-.12.4-.15.38a1.65,1.65,0,0,1-.11.23s-.06.1-.08.1l-.13,0-.85-.24a.11.11,0,0,1-.08-.13l0-.35a.17.17,0,0,1,.12-.11l.69-.05a.8.8,0,0,0,.18-.29,1.61,1.61,0,0,0,.13-.45,1.27,1.27,0,0,0-.11-.82.76.76,0,0,0-.58-.39,1,1,0,0,0-.44,0,.93.93,0,0,0-.33.21,2.16,2.16,0,0,0-.27.33c-.09.13-.17.25-.27.38l-.4.55a3.73,3.73,0,0,1-.45.51,1.74,1.74,0,0,1-.53.33,1.12,1.12,0,0,1-.66.05,1.79,1.79,0,0,1-.75-.33,1.43,1.43,0,0,1-.42-.56,2.28,2.28,0,0,1-.15-.76,5.94,5.94,0,0,1,.07-.91,5.73,5.73,0,0,1,.21-.84c.1-.27.24-.6.24-.6a.18.18,0,0,1,.07-.09l.14,0,.84.23a.11.11,0,0,1,.08.13l0,.35a.15.15,0,0,1-.12.11Z"/><path class="cls-3" d="M23.25,81.78a.13.13,0,0,0,.15,0l2.35-3.37-4.37,2.48a.15.15,0,0,1-.17,0L21,80.68a.16.16,0,0,1-.05-.16l1.26-4.73-2.65,2.9a.12.12,0,0,0,0,.15l.27.36a.12.12,0,0,1,0,.16l-.09.1a.11.11,0,0,1-.15,0l-1.29-1.2a.12.12,0,0,1,0-.15l.1-.09a.11.11,0,0,1,.15,0l.38.24a.14.14,0,0,0,.16,0l3-3.33a.12.12,0,0,0,0-.16l-.28-.33a.12.12,0,0,1,0-.16l.08-.11a.11.11,0,0,1,.15,0l1.35,1.1a.17.17,0,0,1,.06.16l-1.08,4.16,3.7-2a.15.15,0,0,1,.17,0l1.3,1a.11.11,0,0,1,0,.15l-.09.1a.12.12,0,0,1-.15,0l-.39-.21a.13.13,0,0,0-.16,0L24.2,82.32a.15.15,0,0,0,0,.17l.3.32a.13.13,0,0,1,0,.16l-.08.11a.12.12,0,0,1-.15,0l-1.66-1.22a.1.1,0,0,1,0-.15l.08-.1a.11.11,0,0,1,.15,0Z"/><path class="cls-3" d="M33,81.49a5,5,0,0,1,1.05.69,2.61,2.61,0,0,1,.68.86A2.19,2.19,0,0,1,35,84.1a3.13,3.13,0,0,1-.38,1.28,3.53,3.53,0,0,1-.79,1.05,2.39,2.39,0,0,1-1,.52,2.67,2.67,0,0,1-1.13,0,7,7,0,0,1-1.13-.39l-.19-.09-2-1a.1.1,0,0,1,0-.14l.06-.12a.13.13,0,0,1,.15-.06l.42.12a.13.13,0,0,0,.15-.06l2.07-4a.14.14,0,0,0,0-.16l-.34-.27a.11.11,0,0,1,0-.15l.06-.12a.11.11,0,0,1,.14,0Zm.93,2.4A2.05,2.05,0,0,0,34,83a1.56,1.56,0,0,0-.41-.68,4.32,4.32,0,0,0-.68-.49l-.18-.1-.52-.27L30,85.79l.49.25a6.57,6.57,0,0,0,.69.3,2.17,2.17,0,0,0,.64.1,1.89,1.89,0,0,0,1-.39,3,3,0,0,0,.86-1.11A4.29,4.29,0,0,0,34,83.89Z"/><path class="cls-3" d="M42.77,85.49c0-.19,0-.22,0-.36s-.06-.23-.22-.33a.91.91,0,0,0-.22-.11,1.6,1.6,0,0,0-.42-.13,1.9,1.9,0,0,0-.79,0,1.51,1.51,0,0,0-.67.33,2.26,2.26,0,0,0-.52.67,4.14,4.14,0,0,0-.32,1,2.85,2.85,0,0,0,.18,1.92,1.88,1.88,0,0,0,1.39.88,4.09,4.09,0,0,0,.63,0l.67-.07c.13,0,.14.08.14.08v.1a.15.15,0,0,1-.08.16,3.26,3.26,0,0,1-.76.18,3.07,3.07,0,0,1-1.08,0,3.37,3.37,0,0,1-1-.34,2.15,2.15,0,0,1-.76-.64,2.3,2.3,0,0,1-.41-1,3.4,3.4,0,0,1,0-1.34,3.56,3.56,0,0,1,.47-1.3,2.52,2.52,0,0,1,.79-.8,2.59,2.59,0,0,1,1-.37,4.09,4.09,0,0,1,2.05.28l.49.22a.23.23,0,0,1,.15.28l-.23.75s0,.16-.19.14l-.21,0S42.78,85.68,42.77,85.49Z"/><path class="cls-3" d="M51.44,85.68c-.06-.18-.06-.21-.1-.34s-.12-.21-.3-.27L50.8,85a2,2,0,0,0-.43,0,2,2,0,0,0-.78.19,1.68,1.68,0,0,0-.57.49,2.17,2.17,0,0,0-.34.77,3.89,3.89,0,0,0-.07,1,2.8,2.8,0,0,0,.63,1.83,1.87,1.87,0,0,0,1.55.52,2.79,2.79,0,0,0,.62-.11c.19,0,.4-.13.64-.22s.16,0,.16,0l0,.1a.14.14,0,0,1,0,.17,3.06,3.06,0,0,1-.7.36,3.75,3.75,0,0,1-2.13.13A2.24,2.24,0,0,1,47.84,89a3.73,3.73,0,0,1-.29-1.31,3.65,3.65,0,0,1,.15-1.37,2.56,2.56,0,0,1,.59-1,2.6,2.6,0,0,1,.93-.61,4.19,4.19,0,0,1,1.21-.25,3.82,3.82,0,0,1,.84,0l.53.09c.23.06.21.24.21.24l0,.78s0,.17-.16.18l-.21,0S51.49,85.87,51.44,85.68Z"/><path class="cls-3" d="M59.89,83.9c-.1-.17-.1-.2-.17-.32s-.15-.18-.35-.2h-.24a2.26,2.26,0,0,0-.43.07,2,2,0,0,0-.72.36,1.58,1.58,0,0,0-.46.59,2.12,2.12,0,0,0-.16.83,3.69,3.69,0,0,0,.14,1,2.87,2.87,0,0,0,1,1.66,1.89,1.89,0,0,0,1.63.18,3.18,3.18,0,0,0,.59-.24c.17-.09.35-.21.57-.35s.16,0,.16,0l.06.09a.14.14,0,0,1,0,.18,3.5,3.5,0,0,1-1.59.93,3.68,3.68,0,0,1-1.07.13,2.28,2.28,0,0,1-1-.24,2.38,2.38,0,0,1-.8-.7,4.24,4.24,0,0,1-.69-2.59,2.66,2.66,0,0,1,.36-1.07,2.7,2.7,0,0,1,.79-.79,4.16,4.16,0,0,1,1.13-.5,4.24,4.24,0,0,1,.83-.14H60a.24.24,0,0,1,.27.18l.12.78s0,.17-.12.21l-.2,0S60,84.07,59.89,83.9Z"/><path class="cls-3" d="M66.92,82.52l-2.51-1.14a.31.31,0,0,0-.19,0l-.38.12a.15.15,0,0,1-.15-.06l-.06-.12a.1.1,0,0,1,0-.14l1.8-1a.1.1,0,0,1,.14,0l.07.12a.12.12,0,0,1,0,.16l-.22.2a.07.07,0,0,0,0,.12l1.79.85.22-2c0-.06,0-.09-.09-.07l-.31.1a.14.14,0,0,1-.15-.06l-.07-.12a.1.1,0,0,1,0-.14l1.43-.81a.1.1,0,0,1,.14,0l.07.12a.14.14,0,0,1,0,.16l-.33.29a.25.25,0,0,0-.08.17l-.28,2.54,2.78,1.29a.25.25,0,0,0,.19,0l.39-.12a.15.15,0,0,1,.15.06l.06.12a.1.1,0,0,1,0,.14l-1.81,1a.1.1,0,0,1-.14,0l-.07-.11a.16.16,0,0,1,0-.16l.24-.22s0-.09,0-.11l-2.09-1-.26,2.33a.07.07,0,0,0,.09.08l.3-.1a.15.15,0,0,1,.15.06l.07.12a.11.11,0,0,1,0,.14l-1.44.82a.1.1,0,0,1-.14,0L66.14,86a.14.14,0,0,1,0-.16l.33-.29a.4.4,0,0,0,.09-.17Z"/><path class="cls-3" d="M73.15,74.89a.13.13,0,0,1,0,.16l-.27.35a.14.14,0,0,0,0,.16l3,3.41a.14.14,0,0,0,.16,0l.38-.22a.14.14,0,0,1,.16,0l.09.1a.11.11,0,0,1,0,.15L75.12,80.4a.09.09,0,0,1-.14,0l-.09-.1a.13.13,0,0,1,0-.16l.27-.34a.12.12,0,0,0,0-.16l-3-3.42a.14.14,0,0,0-.16,0l-.38.22a.14.14,0,0,1-.16,0l-.09-.1a.12.12,0,0,1,0-.15l1.55-1.36a.11.11,0,0,1,.15,0Z"/><path class="cls-3" d="M21.84,21.43a.21.21,0,0,0,.17-.05l.86-.91a.1.1,0,0,0,0-.14l-.1-.1a.13.13,0,0,0-.16,0l-.33.23a.28.28,0,0,1-.18,0l-2.57-.42c-.06,0-.08-.05-.06-.11a3,3,0,0,0,.3-1,1.38,1.38,0,0,0-.47-1,1.33,1.33,0,0,0-.65-.36,1.31,1.31,0,0,0-.65.07,2.29,2.29,0,0,0-.6.35c-.19.16-.47.43-.47.43l-.14.15-1.51,1.58a.11.11,0,0,0,0,.15l.1.09a.14.14,0,0,0,.16,0l.36-.27a.14.14,0,0,1,.16,0l3.3,3.14a.14.14,0,0,1,0,.16l-.24.37a.14.14,0,0,0,0,.16l.09.09a.11.11,0,0,0,.15,0l1.42-1.49a.1.1,0,0,0,0-.14l-.09-.1a.16.16,0,0,0-.16,0l-.36.26a.13.13,0,0,1-.16,0l-1.52-1.45.22-.24a.2.2,0,0,1,.18-.05Zm-3.51-.57-.07.06-1.64-1.55.29-.3c0-.05.11-.11.15-.15a3.75,3.75,0,0,1,.3-.27,1.14,1.14,0,0,1,.39-.18.73.73,0,0,1,.41,0,1.13,1.13,0,0,1,.43.28,1.16,1.16,0,0,1,.46.9,2.3,2.3,0,0,1-.39.81,1,1,0,0,1-.13.16Z"/></g></g></svg>