<svg xmlns="http://www.w3.org/2000/svg" viewBox="0 0 68.37 68.37">
  <defs>
    <style>.cls-1{fill:#fff;}</style>
  </defs>
  <g id="Layer_2" data-name="Layer 2">
    <g id="Layer_1-2" data-name="Layer 1">
      <path class="cls-1" d="M34.22,68.37h0a34,34,0,0,1-13-2.58,2,2,0,0,1,1.53-3.69,30,30,0,0,0,11.52,2.27,2,2,0,0,1,2,2A2,2,0,0,1,34.22,68.37Zm12.31-2.45a2,2,0,0,1-.77-3.85,30,30,0,0,0,9.78-6.55,2,2,0,0,1,2.83,2.83A34.21,34.21,0,0,1,47.3,65.77,2.11,2.11,0,0,1,46.53,65.92ZM11.46,59a2,2,0,0,1-1.41-.58A34.19,34.19,0,0,1,2.62,47.33a2,2,0,1,1,3.69-1.54,30.17,30.17,0,0,0,6.56,9.77,2,2,0,0,1,0,2.83A2,2,0,0,1,11.46,59ZM63.93,48.5a2.06,2.06,0,0,1-.76-.15,2,2,0,0,1-1.08-2.62,30.1,30.1,0,0,0,2.28-11.54v-.14a2,2,0,0,1,4,0v.14a34,34,0,0,1-2.59,13.07A2,2,0,0,1,63.93,48.5ZM2,36.22a2,2,0,0,1-2-2v-.06a34,34,0,0,1,2.56-13,2,2,0,0,1,3.7,1.53A30,30,0,0,0,4,34.19,2,2,0,0,1,2,36.22ZM63.88,23.75A2,2,0,0,1,62,22.52a30.16,30.16,0,0,0-6.59-9.76,2,2,0,1,1,2.82-2.83A34,34,0,0,1,65.73,21a2,2,0,0,1-1.07,2.62A2.16,2.16,0,0,1,63.88,23.75ZM11.37,13.49A2,2,0,0,1,10,10.07,34.22,34.22,0,0,1,21,2.63a2,2,0,1,1,1.54,3.69,30,30,0,0,0-9.76,6.58A2,2,0,0,1,11.37,13.49Zm35-7.09a2,2,0,0,1-.76-.15A30.12,30.12,0,0,0,34.19,4h-.1a2,2,0,0,1,0-4h.1a34.08,34.08,0,0,1,13,2.55,2,2,0,0,1-.76,3.85Z"/>
      <path class="cls-1" d="M28.22,49.44a2,2,0,0,1-.91-.22,2,2,0,0,1-1.09-1.78V20.93a2,2,0,0,1,3.17-1.62L47.77,32.56a2,2,0,0,1,0,3.25L29.39,49.06A2,2,0,0,1,28.22,49.44Zm2-24.6V43.53l13-9.34Z"/>
    </g>
  </g>
</svg>
