<svg xmlns="http://www.w3.org/2000/svg" viewBox="0 0 73.09 71.05"><defs><style>.cls-1{fill:#fff;}</style></defs><g id="Layer_2" data-name="Layer 2"><g id="Layer_1-2" data-name="Layer 1"><path class="cls-1" d="M62.86,16.37a2,2,0,1,0-2.26,3.3,19.51,19.51,0,0,1,0,32.2,2,2,0,0,0,1.13,3.65,2,2,0,0,0,1.13-.35,23.51,23.51,0,0,0,0-38.8Z"/><path class="cls-1" d="M56.84,27.67a2,2,0,1,0-2.67,3,6.88,6.88,0,0,1,0,10.25,2,2,0,0,0,2.67,3,10.87,10.87,0,0,0,0-16.2Z"/><path class="cls-1" d="M43.51.22a2,2,0,0,0-2.09.16l-24.63,18H2a2,2,0,0,0-2,2V51.67a2,2,0,0,0,2,2H16.83l24.63,17a2,2,0,0,0,1.14.36,2,2,0,0,0,.93-.23,2,2,0,0,0,1.07-1.77V2A2,2,0,0,0,43.51.22Zm-2.91,65L18.59,50a2,2,0,0,0-1.13-.35H4V22.33H17.44a2,2,0,0,0,1.17-.39l22-16Z"/></g></g></svg>