<svg xmlns="http://www.w3.org/2000/svg" viewBox="0 0 76.43 71.05"><defs><style>.cls-1{fill:#fff;}</style></defs><g id="Layer_2" data-name="Layer 2"><g id="Layer_1-2" data-name="Layer 1"><path class="cls-1" d="M43.51.22a2,2,0,0,0-2.09.16l-24.63,18H2a2,2,0,0,0-2,2V51.67a2,2,0,0,0,2,2H16.83l24.63,17a2,2,0,0,0,1.14.36,2,2,0,0,0,.93-.23,2,2,0,0,0,1.07-1.77V2A2,2,0,0,0,43.51.22Zm-2.91,65L18.59,50a2,2,0,0,0-1.13-.35H4V22.33H17.44a2,2,0,0,0,1.17-.39l22-16Z"/><path class="cls-1" d="M66.79,35.74l9.13-9.13a1.76,1.76,0,0,0,0-2.48,1.8,1.8,0,0,0-2.48,0l-9.13,9.13-9.13-9.13a1.8,1.8,0,0,0-2.48,0,1.75,1.75,0,0,0,0,2.48l9.12,9.13L52.7,44.87a1.75,1.75,0,0,0,2.48,2.47l9.13-9.13,9.13,9.13a1.75,1.75,0,0,0,2.48-2.48Z"/></g></g></svg>