<svg id="Layer_1" data-name="Layer 1" xmlns="http://www.w3.org/2000/svg" viewBox="0 0 201.44 178.08"><defs><style>.cls-1{fill:#fff;}</style></defs><path class="cls-1" d="M201.44,73.18H67.33v-54A19.2,19.2,0,0,1,86.51,0h95.76a19.19,19.19,0,0,1,19.17,19.18Zm-126.11-8H193.44v-46A11.18,11.18,0,0,0,182.27,8H86.51A11.19,11.19,0,0,0,75.33,19.18Z"/><path class="cls-1" d="M182.27,178H86.51A19.2,19.2,0,0,1,67.33,158.8V104.89H201.44V158.8A19.19,19.19,0,0,1,182.27,178ZM75.33,112.89V158.8A11.2,11.2,0,0,0,86.51,170h95.76a11.19,11.19,0,0,0,11.17-11.18V112.89Z"/><path class="cls-1" d="M175,73.18H93.81V0H175Zm-73.15-8H167V8H101.81Z"/><path class="cls-1" d="M97.69,40.59H71.4a4,4,0,0,1,0-8H97.69a4,4,0,0,1,0,8Z"/><path class="cls-1" d="M197.35,40.59H171.07a4,4,0,0,1,0-8h26.28a4,4,0,0,1,0,8Z"/><path class="cls-1" d="M175,178.08H93.81V104.9H175Zm-73.15-8H167V112.9H101.81Z"/><path class="cls-1" d="M97.69,145.49H71.4a4,4,0,0,1,0-8H97.69a4,4,0,0,1,0,8Z"/><path class="cls-1" d="M197.35,145.49H171.07a4,4,0,0,1,0-8h26.28a4,4,0,1,1,0,8Z"/><path class="cls-1" d="M32.09,100.54a4,4,0,0,1-2.28-7.29L59.14,72.88a4,4,0,1,1,4.57,6.57L34.37,99.82A4,4,0,0,1,32.09,100.54Z"/><path class="cls-1" d="M123.15,126.54a3.93,3.93,0,0,1-2-.56L30.07,72.5a4,4,0,1,1,4-6.9l91.06,53.49a4,4,0,0,1-2,7.45Z"/><path class="cls-1" d="M23,137.58a23,23,0,1,1,23.05-23A23.07,23.07,0,0,1,23,137.58Zm0-38.09a15,15,0,1,0,15.05,15.05A15.06,15.06,0,0,0,23,99.49Z"/><path class="cls-1" d="M23,74.09a23,23,0,1,1,23.05-23A23.07,23.07,0,0,1,23,74.09ZM23,36a15,15,0,1,0,15.05,15A15.06,15.06,0,0,0,23,36Z"/></svg>