<?xml version="1.0" encoding="utf-8"?>
<!-- Generator: Adobe Illustrator 24.3.0, SVG Export Plug-In . SVG Version: 6.00 Build 0)  -->
<svg version="1.1" id="Layer_1" xmlns="http://www.w3.org/2000/svg" xmlns:xlink="http://www.w3.org/1999/xlink" x="0px" y="0px"
	 viewBox="0 0 145.8 145.8" style="enable-background:new 0 0 145.8 145.8;" xml:space="preserve">
<style type="text/css">
	.st0{fill:#00C7F5;}
	.st1{fill:#FFD200;}
	.st2{fill:#F8ED00;}
	.st3{fill:#91C9FF;}
	.st4{fill:#FFD300;}
	.st5{fill:#FF000D;}
	.st6{fill:#A8E3FA;}
	.st7{fill:#0678FB;}
	.st8{fill:#FFF6BC;}
</style>
<path class="st0" d="M124.1,145.8H21.7c-12,0-21.7-9.7-21.7-21.7V21.7C0,9.7,9.7,0,21.7,0h102.4c12,0,21.7,9.7,21.7,21.7v102.4
	C145.8,136.1,136.1,145.8,124.1,145.8z"/>
<g>
	<g>
		<path class="st1" d="M46.6,44c0.2,0,0.3,0,0.5,0.1V43h-2.4h-9.4v9.4v56.4c0,5.2,4.2,9.3,9.3,9.4V46C44.6,44.8,45.5,44,46.6,44z"/>
		<path class="st2" d="M54.1,43h-7V44c0.9,0.2,1.5,1,1.5,1.9v72.3h5.5h56.5V43H54.1z"/>
		<path class="st1" d="M47.1,118.2V52.4V43C47,43,46.8,43,46.6,43c-1.1,0-2,0.9-2,2v73.3c0,0,0.1,0,0.1,0H47.1z"/>
		<path class="st1" d="M47.1,43v8.3v66.9h1.5V43.6C48.6,42.6,48,43.3,47.1,43z"/>
		<path class="st3" d="M47.1,43C47,43,46.8,43,46.6,43c-1.1,0-2-1.1-2,0v75.3c0,0,0.1,0,0.1,0h2.4h1.5V44C48.6,43,48,43.3,47.1,43z"
			/>
	</g>
	<path class="st4" d="M67.7,74.2h19.8c2.3,0,4.2-1.9,4.2-4.2V59.6c0-2.3-1.9-4.2-4.2-4.2H67.7c-2.3,0-4.2,1.9-4.2,4.2V70
		C63.5,72.3,65.4,74.2,67.7,74.2z"/>
	<g>
		<path class="st1" d="M35.3,33.5v12.6h8.4l1-3.2h0C39.5,43,35.3,38.7,35.3,33.5z"/>
	</g>
	<polygon class="st5" points="59.5,131.2 54,125.2 48.6,131.2 48.6,118.2 59.5,118.2 	"/>
	<g>
		<path class="st6" d="M109.5,26.1H45.6c-4.1,0-7.4,3.3-7.4,7.4c0,4.1,3.3,7.4,7.4,7.4h63.9v0h1.1V26.1H109.5z"/>
		<rect x="110.6" y="25.1" class="st7" width="0" height="1"/>
		<rect x="110.6" y="41" class="st7" width="0" height="1"/>
		<path class="st8" d="M45.6,26.1h63.9h1.1v-1v-1h0v-1h-65c-5.7,0-10.4,4.7-10.4,10.4S39.9,44,45.6,44h65v-1h0v-1v-1h-1.1v0H45.6
			c-4.1,0-7.4-3.3-7.4-7.4C38.2,29.5,41.5,26.1,45.6,26.1z"/>
	</g>
</g>
</svg>
