<?xml version="1.0" encoding="utf-8"?>
<!-- Generator: Adobe Illustrator 23.0.1, SVG Export Plug-In . SVG Version: 6.00 Build 0)  -->
<svg version="1.1" id="Layer_1" xmlns="http://www.w3.org/2000/svg" xmlns:xlink="http://www.w3.org/1999/xlink" x="0px" y="0px"
	 viewBox="0 0 24 24" style="enable-background:new 0 0 24 24;" xml:space="preserve">
<path d="M15,15v-1.5c0-0.8-0.7-1.5-1.5-1.5c0.8,0,1.5-0.7,1.5-1.5V9c0-1.1-0.9-2-2-2H9v2h4v2h-2v2h2v2H9v2h4C14.1,17,15,16.1,15,15
	 M12,2c5.5,0,10,4.5,10,10s-4.5,10-10,10S2,17.5,2,12S6.5,2,12,2z"/>
</svg>
