<?xml version="1.0" encoding="utf-8"?>
<!-- Generator: Adobe Illustrator 24.2.1, SVG Export Plug-In . SVG Version: 6.00 Build 0)  -->
<svg version="1.1" id="Layer_1" xmlns="http://www.w3.org/2000/svg" xmlns:xlink="http://www.w3.org/1999/xlink" x="0px" y="0px"
	 viewBox="0 0 150 150" style="enable-background:new 0 0 150 150;" xml:space="preserve">
<path d="M82.1,75l65.5-65.5c2-2,2-5.1,0-7.1s-5.1-2-7.1,0L75,67.9L9.5,2.5c-2-2-5.1-2-7.1,0s-2,5.1,0,7.1L67.9,75L2.5,140.5
	c-2,2-2,5.1,0,7.1c1,1,2.3,1.5,3.5,1.5s2.6-0.5,3.5-1.5L75,82.1l65.5,65.5c1,1,2.3,1.5,3.5,1.5s2.6-0.5,3.5-1.5c2-2,2-5.1,0-7.1
	L82.1,75z"/>
</svg>
