<svg xmlns="http://www.w3.org/2000/svg" viewBox="0 0 22.65 22.65"><defs><style>.cls-1{fill:#201600;}</style></defs><title>Asset 2</title><g id="Layer_2" data-name="Layer 2"><g id="Layer_1-2" data-name="Layer 1"><path class="cls-1" d="M5.27,10.54a19.68,19.68,0,0,1-3.74-.37A1.49,1.49,0,0,1,.37,9a19.21,19.21,0,0,1,0-7.48A1.47,1.47,0,0,1,1.53.37,19.21,19.21,0,0,1,9,.37a1.49,1.49,0,0,1,1.16,1.16,19.21,19.21,0,0,1,0,7.48A1.5,1.5,0,0,1,9,10.17a19.68,19.68,0,0,1-3.74.37m3.65-.8h0ZM5.27.87a18,18,0,0,0-3.57.36.57.57,0,0,0-.47.47,17.88,17.88,0,0,0,0,7.14.59.59,0,0,0,.47.47,18.07,18.07,0,0,0,7.14,0,.6.6,0,0,0,.47-.47,18.25,18.25,0,0,0,0-7.14.59.59,0,0,0-.47-.47A18,18,0,0,0,5.27.87Z"/><path class="cls-1" d="M5.27,22.65a19.68,19.68,0,0,1-3.74-.37A1.49,1.49,0,0,1,.37,21.12a19.21,19.21,0,0,1,0-7.48,1.47,1.47,0,0,1,1.16-1.16,19.21,19.21,0,0,1,7.48,0,1.49,1.49,0,0,1,1.16,1.16,19.21,19.21,0,0,1,0,7.48A1.5,1.5,0,0,1,9,22.28a19.68,19.68,0,0,1-3.74.37m3.65-.8h0ZM5.27,13a17.94,17.94,0,0,0-3.57.36.59.59,0,0,0-.47.47,17.88,17.88,0,0,0,0,7.14.59.59,0,0,0,.47.47,17.88,17.88,0,0,0,7.14,0A.6.6,0,0,0,9.31,21a18.25,18.25,0,0,0,0-7.14.6.6,0,0,0-.47-.47A18,18,0,0,0,5.27,13Z"/><path class="cls-1" d="M22.21,2.33H14.55a.44.44,0,0,1-.43-.44.43.43,0,0,1,.43-.43h7.66a.44.44,0,0,1,.44.43.44.44,0,0,1-.44.44"/><path class="cls-1" d="M22.21,5.7H14.55a.43.43,0,0,1-.43-.43.44.44,0,0,1,.43-.44h7.66a.44.44,0,0,1,.44.44.44.44,0,0,1-.44.43"/><path class="cls-1" d="M22.21,9.08H14.55a.44.44,0,0,1,0-.87h7.66a.44.44,0,1,1,0,.87"/><path class="cls-1" d="M22.21,14.44H14.55a.44.44,0,0,1-.43-.44.43.43,0,0,1,.43-.43h7.66a.44.44,0,0,1,.44.43.44.44,0,0,1-.44.44"/><path class="cls-1" d="M22.21,17.82H14.55a.44.44,0,0,1,0-.88h7.66a.44.44,0,0,1,0,.88"/><path class="cls-1" d="M22.21,21.19H14.55a.44.44,0,0,1,0-.87h7.66a.44.44,0,1,1,0,.87"/></g></g></svg>