<?xml version="1.0" encoding="utf-8"?>
<!-- Generator: Adobe Illustrator 24.2.1, SVG Export Plug-In . SVG Version: 6.00 Build 0)  -->
<svg version="1.1" id="Layer_1" xmlns="http://www.w3.org/2000/svg" xmlns:xlink="http://www.w3.org/1999/xlink" x="0px" y="0px"
	 viewBox="0 0 475.1 473.8" style="enable-background:new 0 0 475.1 473.8;" xml:space="preserve">
<style type="text/css">
	.st0{fill:#C5BE9A;}
	.st1{fill:#CA6C24;}
	.st2{fill:#FF8000;}
	.st3{fill:#FFDD00;}
	.st4{fill:#FCB600;}
	.st5{fill:#FFFFFF;}
</style>
<circle class="st0" cx="237.6" cy="236.9" r="334.6"/>
<g>
	<polygon class="st1" points="273.7,192.1 155.2,192.1 95.8,28 214.3,28 	"/>
	<polygon class="st2" points="198.7,192.1 317.2,192.1 376.6,28 258.1,28 	"/>
	<polygon class="st3" points="237.6,113.8 300.3,164.3 378.8,181.8 378.4,262.2 413.7,334.6 350.5,384.6 316,457.1 237.6,438.9 
		159.3,457.1 124.6,384.6 61.4,334.6 96.7,262.2 96.4,181.8 175,164.3 	"/>
	<circle class="st4" cx="237.6" cy="294.7" r="118.6"/>
</g>
<polygon class="st5" points="238.9,230.8 252,257.4 281.4,261.7 260.1,282.4 265.2,311.7 238.9,297.9 212.6,311.7 217.6,282.4 
	196.3,261.7 225.7,257.4 "/>
</svg>
