<svg xmlns="http://www.w3.org/2000/svg" viewBox="0 0 25.84 22.64"><defs><style>.cls-1{fill:#fff;}</style></defs><title>Asset 3</title><g id="Layer_2" data-name="Layer 2"><g id="Layer_1-2" data-name="Layer 1"><path class="cls-1" d="M21.56,22.64H15.77a.44.44,0,0,1-.44-.43V16.28H10.51v5.93a.44.44,0,0,1-.44.43H4.28a.44.44,0,0,1-.44-.43V9.82H.43A.44.44,0,0,1,0,9.52.44.44,0,0,1,.18,9L12.67.08a.42.42,0,0,1,.5,0l3,2.13V.43A.43.43,0,0,1,16.57,0h5A.44.44,0,0,1,22,.43v6L25.66,9a.44.44,0,0,1-.26.79H22V22.21a.44.44,0,0,1-.44.43m-5.36-.87h4.93V9.38A.43.43,0,0,1,21.56,9h2.49L21.31,7a.44.44,0,0,1-.18-.36V.87H17V3a.39.39,0,0,1-.06.25.43.43,0,0,1-.57.16l-.06,0L12.92,1,1.79,9H4.28a.43.43,0,0,1,.43.43V21.77H9.64V15.84a.43.43,0,0,1,.43-.43h5.7a.43.43,0,0,1,.43.43Z"/><path class="cls-1" d="M13,12a2.59,2.59,0,1,1,2.59-2.59A2.59,2.59,0,0,1,13,12m0-4.3a1.72,1.72,0,1,0,1.72,1.71A1.72,1.72,0,0,0,13,7.67Z"/></g></g></svg>