<?xml version="1.0" encoding="utf-8"?>
<!-- Generator: Adobe Illustrator 24.3.0, SVG Export Plug-In . SVG Version: 6.00 Build 0)  -->
<svg version="1.1" id="Layer_1" xmlns="http://www.w3.org/2000/svg" xmlns:xlink="http://www.w3.org/1999/xlink" x="0px" y="0px"
	 viewBox="0 0 137.9 141.6" style="enable-background:new 0 0 137.9 141.6;" xml:space="preserve">
<g>
	<path d="M116.3,108.8c-1.3,0-2.5-0.6-3.3-1.7c-1.2-1.8-0.8-4.3,1-5.6c9.9-6.8,15.9-18.1,15.9-30.1c0-12-5.9-23.3-15.9-30.1
		c-1.8-1.2-2.3-3.7-1-5.6c1.3-1.8,3.7-2.3,5.6-1c12.1,8.3,19.3,22,19.3,36.7c0,14.7-7.2,28.4-19.3,36.7
		C117.9,108.5,117.1,108.8,116.3,108.8z"/>
</g>
<g>
	<path d="M104.6,87.8c-1.1,0-2.2-0.4-3-1.3c-1.5-1.6-1.3-4.2,0.3-5.6c2.7-2.4,4.2-5.9,4.2-9.5s-1.5-7-4.2-9.5
		c-1.6-1.5-1.8-4-0.3-5.6c1.5-1.6,4-1.8,5.6-0.3c4.4,3.9,6.9,9.6,6.9,15.4s-2.5,11.5-6.9,15.4C106.5,87.5,105.6,87.8,104.6,87.8z"/>
</g>
<g>
	<path d="M84.4,141.6l-52.5-36.3H0V38.3h31.7L84.4,0V141.6z M8,97.3h26.3l42,29.1V15.7l-42,30.6H8V97.3z"/>
</g>
</svg>
