<svg xmlns="http://www.w3.org/2000/svg" viewBox="0 0 65 49.93"><defs><style>.cls-1{fill:#fff;}</style></defs><title>Asset 2</title><g id="Layer_2" data-name="Layer 2"><g id="Layer_1-2" data-name="Layer 1"><g id="Layer_1-2-2" data-name="Layer 1-2"><path class="cls-1" d="M26.38,33a11.31,11.31,0,1,1,11.3-11.3A11.3,11.3,0,0,1,26.38,33Zm0-20.72a9.42,9.42,0,1,0,9.42,9.42A9.41,9.41,0,0,0,26.38,12.25Z"/><circle class="cls-1" cx="44.28" cy="14.13" r="1.88"/><path class="cls-1" d="M47.1,39.57H5.65A5.66,5.66,0,0,1,0,33.91V12.25A5.65,5.65,0,0,1,5.65,6.59h7.6A1,1,0,0,0,14,6.26L18.6.8A2.53,2.53,0,0,1,20.48,0H32.31A2.54,2.54,0,0,1,34.1.74l5.58,5.58a1,1,0,0,0,.67.27H47.1a5.65,5.65,0,0,1,5.65,5.66V33.91A5.66,5.66,0,0,1,47.1,39.57ZM5.65,8.48a3.77,3.77,0,0,0-3.77,3.77V33.91a3.77,3.77,0,0,0,3.77,3.77H47.1a3.77,3.77,0,0,0,3.77-3.77V12.25A3.77,3.77,0,0,0,47.1,8.48H40.35a2.83,2.83,0,0,1-2-.83L32.77,2.07a.66.66,0,0,0-.46-.19H20.44a.66.66,0,0,0-.46.19L15.42,7.48a2.82,2.82,0,0,1-2.17,1Z"/><rect class="cls-1" x="41.45" y="26.38" width="17.9" height="17.9"/><path d="M50.4,20.72A14.61,14.61,0,1,0,65,35.33,14.6,14.6,0,0,0,50.4,20.72Zm9,16H51.81v7.54H49V36.74H41.45V33.91H49V26.38h2.82v7.53h7.54Z"/></g></g></g></svg>