<svg xmlns="http://www.w3.org/2000/svg" viewBox="0 0 69 53"><defs><style>.cls-1{fill:#fff;}</style></defs><title>Asset 3</title><g id="Layer_2" data-name="Layer 2"><g id="Layer_1-2" data-name="Layer 1"><path d="M28,35A12,12,0,1,1,40,23,12,12,0,0,1,28,35Zm0-22A10,10,0,1,0,38,23,10,10,0,0,0,28,13Z"/><circle cx="47" cy="15" r="2"/><path d="M50,42H6a6,6,0,0,1-6-6V13A6,6,0,0,1,6,7h8.07a1,1,0,0,0,.77-.36L19.74.85a2.72,2.72,0,0,1,2-.85H34.3a2.66,2.66,0,0,1,1.9.79l5.92,5.92a1.05,1.05,0,0,0,.71.29H50a6,6,0,0,1,6,6V36A6,6,0,0,1,50,42ZM6,9a4,4,0,0,0-4,4V36a4,4,0,0,0,4,4H50a4,4,0,0,0,4-4V13a4,4,0,0,0-4-4H42.83a3,3,0,0,1-2.12-.88L34.79,2.2A.68.68,0,0,0,34.3,2H21.7a.68.68,0,0,0-.49.2L16.37,7.94A3,3,0,0,1,14.07,9Z"/><rect class="cls-1" x="44" y="28" width="19" height="19"/><path d="M53.5,22A15.5,15.5,0,1,0,69,37.5,15.5,15.5,0,0,0,53.5,22ZM63,39H55v8H52V39H44V36h8V28h3v8h8Z"/></g></g></svg>