<svg xmlns="http://www.w3.org/2000/svg" viewBox="0 0 60 54.56">
  <defs>
    <style>.cls-1{fill:#fff;}</style>
  </defs>
  <title>Asset 1</title>
  <g id="Layer_2" data-name="Layer 2">
    <path class="cls-1" d="M29.91,2.38,44.61,12.6l3.6,2.5V8.73H50.5v8.39l.9.68,6.09,4.68h-7V52.27H9.26V22.48H2.51l27.4-20.1m0-2.38a1.87,1.87,0,0,0-1.14.37L.89,20.82a2.19,2.19,0,0,0,1.3,3.95H7v27.5a2.29,2.29,0,0,0,2.29,2.29H50.5a2.29,2.29,0,0,0,2.29-2.29V24.77h5a2.18,2.18,0,0,0,1.33-3.92L52.79,16V7.58a1.14,1.14,0,0,0-1.14-1.14H47.07a1.14,1.14,0,0,0-1.15,1.14v3.13L31,.4A1.92,1.92,0,0,0,30,.06Z"/>
  </g>
</svg>
